<svg width="765" height="1024" viewBox="0 0 765 1024" fill="none" xmlns="http://www.w3.org/2000/svg">
<path d="M995.122 -2V1025.27H2.28882e-05C5.74546 1020.38 62.5186 937.502 239.174 856.97C423.12 773.123 479.711 731.077 537.076 594.212C577.475 497.851 587.603 387.647 610.127 283.001C629.911 191 696.953 63.005 765.781 -2H995.122Z" fill="url(#paint0_linear_0_6)"/>
<g opacity="0.31">
<path opacity="0.31" d="M926.487 311.075C919.557 272.854 883.303 248.328 851.913 256.929C820.522 265.53 797.145 302.354 794.054 341.315C789.318 316.938 766.781 304.203 746.302 301.609C720.692 298.364 693.698 306.027 673.691 325.754C650.612 348.507 638.964 384.523 633.91 420.137C629.276 452.778 629.448 486.854 637.528 518.486C645.609 550.118 662.041 579.152 685.211 596.548C704.066 610.705 726.416 616.647 748.532 618.312C784.245 620.998 820.843 612.792 852.175 591.771C883.506 570.75 909.225 536.495 921.096 495.436C928.643 469.339 930.54 441.361 931.437 413.715C932.47 381.91 932.26 350.093 930.806 318.266C930.546 312.574 928.838 305.149 924.153 305.132" fill="url(#paint1_linear_0_6)"/>
</g>
<g opacity="0.31">
<path opacity="0.31" d="M996.391 97.6358V220.907C996.391 236.653 996.05 252.594 995.687 268.563C995.164 293.735 994.642 318.954 995.551 343.624C995.573 344.564 995.619 345.473 995.687 346.415V663.183C980.676 684.262 961.669 701.253 940.481 711.917C896.493 734.046 844.307 729.155 802.771 700.893C779.769 685.383 761.541 663.773 750.132 638.485C731.305 596.326 739.185 555.632 751.926 513.252C767.345 462.004 801.295 417.83 844.352 402.494C831.998 393.211 826.275 373.901 828.183 356.385C830.091 338.869 838.56 323.205 849.121 311.075C855.183 304.057 862.383 297.841 870.649 296.295C875.034 295.503 879.557 296.283 883.423 298.496C887.29 300.709 890.253 304.214 891.792 308.395C886.455 258.502 896.878 206.342 920.451 164.984C939.89 130.866 965.416 113.157 995.687 97.9954C995.914 97.8567 996.164 97.7468 996.391 97.6358Z" fill="url(#paint2_linear_0_6)"/>
</g>
<g opacity="0.31">
<path opacity="0.31" d="M996.391 471.444V1025.03H306.709C301.35 989.889 311.978 953.198 329.146 924.052C361.461 869.102 420.21 836.308 474.485 850.621C513.954 861.036 546.701 893.304 577.835 924.604C578.766 891.674 595.435 860.069 619.666 845.316C643.919 830.591 674.691 833.326 696.924 852.195C701.715 782.88 708.346 708.26 746.343 656.35C746.449 656.226 746.548 656.097 746.639 655.962C784.655 604.356 851.488 588.056 902.925 617.865C891.007 591.399 896.339 555.208 915.097 535.455C933.855 515.703 964.059 514.431 983.883 532.554C984.574 511.624 988.803 490.962 996.391 471.444Z" fill="url(#paint3_linear_0_6)"/>
</g>
<path opacity="0.174" d="M814.183 212.438L806.554 211.133C806.262 208.743 805.738 206.388 804.989 204.1L811.287 198.328C811.754 197.852 812.049 197.233 812.126 196.571C812.203 195.908 812.056 195.238 811.71 194.668L805.69 184.948C805.555 184.684 805.36 184.456 805.121 184.281C804.883 184.106 804.606 183.989 804.315 183.939C804.023 183.889 803.723 183.908 803.44 183.994C803.157 184.08 802.897 184.23 802.682 184.434L796.286 190.29C794.77 188.923 793.094 187.745 791.295 186.781L792.432 176.942C792.552 176.31 792.431 175.657 792.092 175.111C791.754 174.565 791.223 174.165 790.605 173.991L780.698 172.295C780.39 172.272 780.081 172.312 779.79 172.413C779.499 172.515 779.231 172.674 779.004 172.883C778.777 173.091 778.594 173.344 778.468 173.625C778.342 173.906 778.275 174.211 778.271 174.519L777.134 184.356C775.229 184.669 773.373 185.227 771.612 186.018L766.672 178.042C766.537 177.779 766.342 177.551 766.103 177.376C765.865 177.201 765.588 177.084 765.296 177.034C765.005 176.984 764.705 177.003 764.422 177.089C764.139 177.175 763.879 177.325 763.664 177.528L755.674 184.852C755.207 185.328 754.911 185.947 754.835 186.609C754.758 187.272 754.904 187.941 755.25 188.512L760.093 196.331C758.877 198.226 757.856 200.239 757.046 202.34L749.097 200.98C748.789 200.957 748.481 200.997 748.189 201.099C747.898 201.2 747.63 201.359 747.403 201.568C747.176 201.776 746.993 202.029 746.867 202.31C746.741 202.592 746.674 202.896 746.67 203.204L745.277 215.256C745.159 215.887 745.281 216.54 745.619 217.086C745.957 217.632 746.487 218.032 747.105 218.208L754.785 219.522C755.008 221.946 755.467 224.342 756.156 226.677L750.001 232.318C749.534 232.794 749.239 233.412 749.162 234.075C749.085 234.738 749.232 235.407 749.578 235.977L755.598 245.699C755.733 245.962 755.928 246.19 756.167 246.365C756.406 246.54 756.682 246.657 756.973 246.707C757.265 246.757 757.565 246.738 757.848 246.652C758.131 246.566 758.391 246.416 758.606 246.213L764.55 240.767C766.15 242.319 767.946 243.656 769.892 244.743L768.856 253.702C768.738 254.333 768.86 254.986 769.198 255.532C769.536 256.078 770.067 256.478 770.685 256.654L780.591 258.349C780.898 258.372 781.207 258.331 781.499 258.23C781.79 258.129 782.057 257.969 782.285 257.761C782.512 257.553 782.694 257.3 782.82 257.019C782.946 256.738 783.014 256.434 783.018 256.125L784.035 247.325C786.164 246.998 788.234 246.363 790.181 245.441L794.617 252.602C794.752 252.865 794.947 253.094 795.185 253.268C795.424 253.443 795.7 253.56 795.992 253.61C796.284 253.66 796.583 253.641 796.866 253.556C797.149 253.47 797.409 253.319 797.624 253.116L805.615 245.792C806.082 245.316 806.377 244.698 806.454 244.035C806.53 243.372 806.384 242.703 806.039 242.133L801.589 234.948C802.86 232.878 803.903 230.677 804.702 228.383L812.192 229.664C812.499 229.686 812.808 229.646 813.1 229.545C813.391 229.444 813.658 229.284 813.886 229.076C814.113 228.868 814.295 228.615 814.421 228.334C814.547 228.053 814.615 227.749 814.619 227.44L816.012 215.387C816.129 214.756 816.007 214.104 815.669 213.559C815.33 213.013 814.801 212.613 814.183 212.438ZM778.723 233.078C770.884 231.736 765.427 222.925 766.527 213.403C767.628 203.882 774.873 197.229 782.713 198.569C790.552 199.91 796.009 208.722 794.906 218.259C793.804 227.796 786.545 234.419 778.723 233.078Z" fill="url(#paint4_linear_0_6)"/>
<path d="M304.202 717.754C311.826 716.951 319.813 717.748 327.48 717.722C329.868 717.712 332.257 717.475 334.643 717.586C337.277 717.708 339.871 718.253 342.487 718.584C345.651 718.976 348.843 719.077 352.025 718.886C354.641 718.733 357.036 717.409 359.454 716.345C364.9 713.947 370.247 711.338 375.495 708.516C385.932 702.885 395.975 696.553 405.555 689.563C424.831 675.564 442.345 659.263 458.631 641.913C464.822 635.318 470.855 628.579 476.728 621.694C523.491 567.137 568.453 430.702 570.236 425.255C570.254 425.201 568.526 419.744 568.481 419.779C566.36 421.474 518.066 455.379 506.84 463.257C506.537 463.471 506.193 463.622 505.83 463.701C505.467 463.78 505.092 463.785 504.727 463.716C504.362 463.647 504.014 463.506 503.705 463.3C503.395 463.094 503.131 462.828 502.926 462.518C500.928 459.513 496.807 453.47 496.05 451.204C495.897 450.746 496.618 451.233 496.72 450.761C496.848 450.334 497.078 449.945 497.389 449.626C502.013 444.103 507.654 439.52 513.411 435.186C518.026 431.711 522.741 428.375 527.555 425.177C529.734 423.834 531.699 422.171 533.384 420.245C535.297 418.041 537.213 415.841 539.132 413.644C546.787 404.879 554.496 396.16 562.17 387.41C576.308 371.289 590.322 355.046 603.692 338.283C606.133 335.225 608.898 331.929 614.252 333.857C617.032 334.916 619.32 336.969 620.673 339.618C620.825 340.96 622.431 342.924 623.072 344.13C623.956 345.789 624.839 347.449 625.721 349.109L648.365 391.677C652.261 399.001 656.157 406.324 660.052 413.647L665.548 423.98C667.348 427.364 668.897 430.795 671.247 433.804C671.543 434.152 671.793 434.536 671.99 434.947C672.148 435.361 672.251 435.794 672.298 436.235C672.705 439.035 672.971 441.85 673.097 444.681C673.202 445.754 673.113 446.838 672.836 447.88C672.692 448.4 672.423 448.877 672.051 449.268C671.68 449.66 671.218 449.955 670.707 450.126C668.273 450.769 665.409 449.073 663.464 447.814L657.562 443.989L644.486 435.52L623.151 421.699C623.108 421.672 623.048 421.692 623.057 421.742C623.449 425.808 634.368 541.707 612.856 615.666C608.61 630.28 603.553 644.646 597.707 658.696C578.359 705.15 550.177 748.116 514.325 783.508C500.704 797.085 485.833 809.348 469.91 820.135C463.421 824.483 456.593 828.106 449.915 832.119C447.013 833.865 443.066 836.911 440.678 832.774C437.894 827.834 435.622 822.622 433.896 817.221C433.743 816.74 434.2 816.538 434.28 816.04C434.387 815.581 434.592 815.15 434.88 814.776C436.113 812.917 437.484 811.13 438.539 809.174C439.861 806.862 440.755 804.332 441.18 801.703C441.602 798.735 441.034 795.427 440.833 792.437C440.388 785.818 439.78 779.213 439.009 772.622C438.109 764.923 436.988 757.255 435.645 749.617C434.548 743.35 434.776 741.477 428.713 743.224C407.629 749.486 385.581 751.861 363.646 750.233C351.391 749.251 338.604 745.889 326.947 742.154C322.874 741 318.949 739.372 315.255 737.303C313.112 735.999 305.124 721.6 304.202 717.754Z" fill="#FF9100"/>
<path d="M666.427 438.423L615.625 405.514C615.584 405.482 615.53 405.507 615.534 405.544C615.924 409.623 626.836 525.515 605.334 599.486C601.088 614.096 596.029 628.458 590.181 642.504C570.828 688.944 542.666 731.933 506.812 767.321C493.176 780.887 478.301 793.149 462.382 803.945C455.898 808.303 449.05 811.917 442.379 815.942C439.636 817.578 436.036 820.879 434.019 817.414C432.491 814.807 434.217 806.027 434.224 802.835C434.216 794.719 433.96 786.612 433.457 778.514C433.01 771.138 432.354 763.779 431.488 756.439C430.574 748.723 429.453 741.052 428.125 733.424C427.972 732.565 427.845 731.78 427.729 731.081C426.973 726.726 426.425 725.519 421.185 727.029C421.148 727.029 421.095 727.058 421.058 727.062C362.166 743.982 303.139 725.071 303.795 716.393C303.809 716.056 303.899 715.727 304.059 715.43C305.281 712.884 316.79 712.192 319.761 711.406C325.505 709.895 331.219 708.125 336.834 706.144C390.42 687.196 432.834 647.946 469.194 605.503C515.969 550.941 560.923 414.516 562.709 409.056C562.726 409.036 562.683 408.985 562.631 409.028C560.218 410.944 527.876 436.696 501.094 452.746C500.35 453.189 499.474 453.357 498.619 453.221C497.764 453.084 496.984 452.652 496.415 452C495.845 451.348 495.523 450.516 495.504 449.651C495.485 448.785 495.77 447.94 496.309 447.263L596.176 322.1C598.315 319.412 600.697 316.552 604.855 317.195C605.491 317.291 606.116 317.452 606.72 317.674C609.514 318.728 611.813 320.79 613.162 323.454C629.655 354.459 658.655 408.973 671.733 433.574C672.113 434.301 672.242 435.133 672.1 435.941C671.958 436.749 671.552 437.487 670.947 438.041C670.341 438.594 669.569 438.932 668.752 439.001C667.935 439.07 667.117 438.867 666.427 438.423Z" fill="#FFB200"/>
<g style="mix-blend-mode:multiply" opacity="0.283">
<path d="M666.427 438.423L615.625 405.514C615.584 405.482 615.53 405.507 615.534 405.544C615.924 409.623 626.836 525.515 605.334 599.486C601.088 614.096 596.029 628.458 590.181 642.504C570.828 688.944 542.666 731.933 506.812 767.321C493.176 780.887 478.301 793.149 462.382 803.945C455.898 808.303 449.05 811.917 442.379 815.942C439.636 817.578 436.035 820.879 434.019 817.414C432.491 814.807 434.217 806.027 434.224 802.835C434.216 794.719 433.96 786.612 433.457 778.514C433.01 771.138 432.354 763.779 431.488 756.439C430.574 748.723 429.453 741.052 428.125 733.424C427.972 732.565 427.845 731.78 427.729 731.081C496.024 686.071 538.84 605.872 565.235 527.315C596.07 435.451 604.448 345.805 604.853 317.19C605.489 317.286 606.114 317.446 606.718 317.669C609.512 318.722 611.811 320.785 613.16 323.449C629.653 354.454 658.653 408.968 671.731 433.569C672.113 434.296 672.243 435.129 672.102 435.937C671.96 436.746 671.555 437.485 670.949 438.04C670.344 438.594 669.572 438.932 668.754 439.001C667.936 439.071 667.118 438.867 666.427 438.423Z" fill="#FFB200"/>
</g>
<path d="M481.25 354.206L429.362 360.104C425.819 360.507 423.273 363.706 423.676 367.25L428.211 407.151C428.614 410.695 431.813 413.241 435.357 412.838L487.244 406.94C490.788 406.537 493.334 403.338 492.931 399.794L488.395 359.893C487.992 356.349 484.793 353.803 481.25 354.206Z" fill="#0090C6"/>
<path d="M466.024 407.211L474.363 417.164C474.514 417.345 474.71 417.482 474.931 417.563C475.152 417.645 475.39 417.666 475.622 417.626C475.854 417.586 476.072 417.485 476.253 417.335C476.434 417.184 476.572 416.988 476.653 416.767C478.007 412.932 479.042 408.992 479.748 404.987" fill="#0090C6"/>
<g style="mix-blend-mode:multiply" opacity="0.283">
<g style="mix-blend-mode:multiply" opacity="0.283">
<path d="M556.617 556.86C553.888 567.657 561.361 578.247 562.674 589.294C563.946 599.992 559.474 613.189 554.231 622.388C535.018 656.157 502.685 684.673 467.736 701.319C463.795 703.196 459.722 704.903 456.236 707.531C446.578 714.816 443.206 727.576 440.45 739.357L434.554 764.571C434.267 765.797 433.908 766.67 432.684 766.667C431.949 763.401 431.892 759.813 431.491 756.439C430.577 748.723 429.457 741.052 428.128 733.424C427.975 732.565 427.848 731.78 427.732 731.081C426.976 726.726 426.428 725.519 421.188 727.029C421.151 727.029 421.098 727.058 421.061 727.062C432.325 691.183 450.01 657.648 473.255 628.087L476.255 624.761C484.712 603.777 493.157 582.8 501.589 561.831C505.866 551.193 510.158 540.517 516.036 530.668C522.177 520.34 529.213 511.312 541.634 509.284C547.736 508.292 554.676 508.77 559.085 513.086C560.545 514.579 561.728 516.321 562.578 518.23C564.434 522.179 565.426 526.479 565.488 530.842C565.549 535.205 564.679 539.531 562.934 543.531C560.932 548.028 557.829 552.097 556.617 556.86Z" fill="#494949"/>
</g>
</g>
<path d="M450.073 385.919C450.18 386.857 450.006 387.805 449.573 388.644C449.141 389.484 448.469 390.176 447.643 390.633C446.817 391.091 445.874 391.293 444.933 391.214C443.992 391.136 443.096 390.78 442.357 390.192C441.619 389.604 441.071 388.81 440.784 387.911C440.496 387.011 440.482 386.047 440.742 385.14C441.003 384.232 441.527 383.422 442.248 382.813C442.969 382.203 443.854 381.821 444.792 381.714C446.05 381.572 447.313 381.934 448.304 382.723C449.294 383.511 449.931 384.661 450.073 385.919Z" fill="#FEFEFE"/>
<path d="M458.465 389.739C461.101 389.739 463.238 387.601 463.238 384.965C463.238 382.329 461.101 380.192 458.465 380.192C455.828 380.192 453.691 382.329 453.691 384.965C453.691 387.601 455.828 389.739 458.465 389.739Z" fill="#FEFEFE"/>
<path d="M476.341 382.933C476.448 383.871 476.274 384.82 475.841 385.659C475.409 386.498 474.737 387.19 473.911 387.648C473.086 388.105 472.143 388.308 471.202 388.23C470.261 388.151 469.365 387.796 468.626 387.208C467.887 386.62 467.339 385.826 467.052 384.927C466.764 384.028 466.749 383.063 467.01 382.156C467.27 381.248 467.794 380.438 468.515 379.829C469.235 379.219 470.121 378.836 471.059 378.73C472.317 378.587 473.58 378.949 474.57 379.737C475.561 380.526 476.198 381.675 476.341 382.933Z" fill="#FEFEFE"/>
<path d="M651.586 605.282C681.479 601.885 703.08 575.962 699.832 547.382C696.583 518.802 669.717 498.387 639.823 501.785C609.929 505.182 588.329 531.105 591.577 559.685C594.825 588.265 621.692 608.68 651.586 605.282Z" fill="#F24B57"/>
<path d="M650.258 593.553C673.382 590.924 690.091 570.871 687.578 548.763C685.065 526.655 664.282 510.864 641.158 513.492C618.034 516.121 601.325 536.174 603.838 558.282C606.351 580.39 627.134 596.181 650.258 593.553Z" fill="#FEFEFE"/>
<path d="M648.907 581.662C665.162 579.814 676.907 565.718 675.141 550.177C673.374 534.636 658.765 523.536 642.51 525.383C626.254 527.231 614.509 541.327 616.276 556.868C618.042 572.409 632.652 583.509 648.907 581.662Z" fill="#F24B57"/>
<path d="M647.558 569.804C656.963 568.735 663.759 560.579 662.737 551.587C661.715 542.595 653.262 536.172 643.856 537.241C634.451 538.31 627.655 546.466 628.677 555.458C629.699 564.451 638.153 570.874 647.558 569.804Z" fill="#FEFEFE"/>
<path d="M646.637 561.7C651.36 561.163 654.773 557.067 654.26 552.55C653.747 548.034 649.501 544.809 644.778 545.346C640.054 545.882 636.641 549.979 637.154 554.495C637.668 559.011 641.913 562.237 646.637 561.7Z" fill="#F24B57"/>
<path d="M747.669 512.859C745.092 510.943 741.276 511.569 738.422 514.126C736.814 510.651 733.556 508.568 730.432 509.309C726.733 510.186 724.628 514.685 725.736 519.357C727.102 524.545 730.197 529.112 734.509 532.303C735.64 532.097 742.865 529.775 747.077 525.028C747.413 524.688 747.727 524.326 748.016 523.946C750.877 520.09 750.722 515.126 747.669 512.859Z" fill="#F24B57"/>
<path d="M671.756 650.757C670.927 648.35 668.15 647.05 665.14 647.447C665.645 644.453 664.446 641.63 662.071 640.716C659.257 639.632 655.867 641.634 654.499 645.185C653.067 649.191 653.046 653.565 654.438 657.584C655.272 657.959 661.036 659.674 665.919 658.456C666.29 658.382 666.656 658.284 667.014 658.163C670.614 656.924 672.737 653.608 671.756 650.757Z" fill="#F24B57"/>
<path d="M384.776 404.786C381.572 405.001 379.073 407.952 378.564 411.748C375.085 410.146 371.255 410.675 369.357 413.265C367.11 416.334 368.432 421.122 372.302 423.958C376.707 427.022 382.025 428.491 387.378 428.122C388.109 427.23 392.097 420.778 392.224 414.431C392.255 413.955 392.255 413.477 392.224 413.001C391.906 408.21 388.571 404.533 384.776 404.786Z" fill="#F24B57"/>
<path d="M346.928 528.223C344.096 529.736 343.033 533.454 344.129 537.124C340.299 537.094 337.025 539.152 336.362 542.293C335.575 546.015 338.745 549.836 343.444 550.829C348.719 551.81 354.171 550.961 358.897 548.422C359.196 547.309 360.179 539.792 357.684 533.951C357.518 533.503 357.322 533.067 357.099 532.645C354.837 528.41 350.283 526.43 346.928 528.223Z" fill="#F24B57"/>
<path d="M375.82 562.406C373.553 562.797 371.992 565.086 371.915 567.83C369.317 566.947 366.627 567.609 365.467 569.596C364.094 571.951 365.39 575.264 368.362 576.993C371.729 578.85 375.628 579.503 379.416 578.843C379.87 578.152 382.233 573.258 381.85 568.726C381.838 568.384 381.803 568.043 381.747 567.706C381.157 564.315 378.505 561.942 375.82 562.406Z" fill="#F24B57"/>
<path d="M470.273 530.351C470.75 529.846 471.191 529.31 471.595 528.746C472.642 527.275 474.146 526.24 475.198 524.717C476.431 522.933 478.023 521.451 478.62 519.291C479.103 517.182 478.88 514.972 477.987 513.001C477.417 511.445 476.441 510.07 475.159 509.018C474.515 508.5 473.756 508.146 472.945 507.985C472.135 507.824 471.297 507.861 470.504 508.093C469.804 508.351 469.166 508.755 468.632 509.277C466.96 510.998 465.965 513.265 465.831 515.66C465.626 517.878 466.481 520.193 466.254 522.327C466.074 524.024 464.722 525.984 464.036 527.574" fill="#F4BE90"/>
<path d="M486.23 641.364L489.101 643.7C480.229 654.204 460.144 656.117 447.374 653.739C446.88 653.653 445.738 653.37 444.109 652.943C433.36 650.192 401.688 641.349 401.513 639.803C404.174 662.209 400.322 684.814 396.499 707.045C395.626 712.142 395.191 725.716 387.963 722.879C387.265 722.602 386.602 722.243 385.99 721.808C382.885 719.67 381.989 715.54 381.353 711.828C376.752 684.489 373.369 656.984 371.205 629.31C370.879 625.189 370.661 620.758 372.792 617.213C377.023 610.227 387.176 610.88 395.259 612.097C416.607 615.282 437.858 614.357 459.237 615.816C465.851 616.26 472.56 615.412 479.109 616.418C485.658 617.424 492.456 620.867 494.881 627.041C497.306 633.215 492.853 641.764 486.23 641.364Z" fill="#43496D"/>
<g style="mix-blend-mode:multiply" opacity="0.356">
<g style="mix-blend-mode:multiply" opacity="0.356">
<path d="M452.622 645.52C450.379 647.701 448.04 649.777 445.607 651.75C445.143 652.123 444.598 652.382 444.015 652.505C443.433 652.629 442.829 652.614 442.254 652.462C433.45 650.156 416.047 645.299 407.105 642.25C406.509 642.048 405.872 641.998 405.251 642.103C404.63 642.208 404.046 642.466 403.549 642.853C403.053 643.24 402.66 643.744 402.407 644.32C402.153 644.897 402.047 645.527 402.097 646.154C403.446 666.475 399.961 686.914 396.499 707.047C396.317 708.109 396.155 709.539 395.945 711.111C395.294 716.004 387.975 715.214 388.37 710.289C388.444 709.364 388.521 708.447 388.596 707.527C390.747 681.86 391.843 656.129 391.883 630.335C391.879 629.822 391.979 629.313 392.177 628.84C392.376 628.366 392.669 627.939 393.039 627.583C393.409 627.227 393.848 626.95 394.328 626.77C394.809 626.589 395.321 626.509 395.834 626.533C399.932 626.794 404 628.093 407.973 629.281C421.97 633.452 436.316 636.327 450.673 639.017C451.363 639.145 452.003 639.462 452.525 639.93C453.047 640.399 453.429 641.003 453.63 641.674C453.832 642.346 453.844 643.06 453.666 643.739C453.489 644.417 453.127 645.034 452.622 645.52Z" fill="#15233A"/>
</g>
</g>
<path d="M513.555 649.123C509.24 655.31 503.922 660.733 497.821 665.168C485.679 674.258 472.602 682.026 458.811 688.339C446.942 693.736 443.249 702.959 440.022 714.906C435.453 731.826 429.748 748.522 424.618 765.284C421.433 775.711 416.056 788.038 405.208 789.143C406.521 767.523 408.795 745.973 411.361 724.469C413.528 706.297 412.372 681.673 422.878 665.944C429.756 655.648 440.203 648.229 450.231 641.269C460.309 634.273 469.758 626.545 479.504 619.335C486.572 614.106 494.062 608.702 502.785 607.602C518.22 605.65 522.27 620.418 520.213 632.912C519.186 638.732 516.915 644.261 513.555 649.123Z" fill="#43496D"/>
<path d="M535.02 569.279C534.901 570.525 534.764 571.79 534.594 573.081C532.399 588.496 528.994 603.715 524.41 618.596C523.554 621.479 522.428 624.275 521.048 626.947C520.802 627.502 520.402 627.975 519.896 628.31C519.212 628.686 518.375 628.389 517.594 628.403C512.991 628.46 508.71 628.443 504.751 628.352C500.279 628.244 496.207 628.054 492.464 627.789C490.941 627.686 489.491 627.567 488.075 627.429C467.651 625.534 458.707 621.382 454.908 618.659C454.784 618.556 454.664 618.482 454.541 618.384C453.64 617.775 452.877 616.985 452.299 616.064C452.299 616.064 455.599 608.654 457.202 605.187C461.585 595.807 465.138 586.18 468.753 576.461C471.029 570.381 473.033 564.201 475.31 558.138C477.468 552.369 482.502 546.739 486.385 541.969C487.52 540.484 488.851 539.158 490.342 538.03C492.715 536.417 495.594 535.81 498.406 535.266C501.337 534.531 504.362 534.244 507.379 534.414C508.416 534.532 509.446 534.714 510.461 534.959C514.3 535.646 518.048 536.773 521.629 538.317C526.733 540.74 530.945 544.707 533.667 549.657C535.718 553.414 535.877 560.728 535.02 569.279Z" fill="#0090C6"/>
<g style="mix-blend-mode:multiply" opacity="0.277">
<g style="mix-blend-mode:multiply" opacity="0.277">
<path d="M535.02 569.279C534.901 570.525 534.764 571.79 534.594 573.081C532.399 588.496 528.994 603.715 524.41 618.596C523.554 621.479 522.428 624.275 521.048 626.947C520.802 627.502 520.402 627.975 519.896 628.31C519.212 628.686 518.375 628.389 517.594 628.403C512.991 628.46 508.71 628.443 504.751 628.352C528.722 599.236 521.69 587.608 535.02 569.279Z" fill="#0090C6"/>
</g>
</g>
<path d="M496.724 554.61C496.98 554.442 497.198 554.223 497.363 553.965C497.528 553.707 497.636 553.417 497.68 553.114C497.724 552.811 497.704 552.503 497.62 552.209C497.535 551.914 497.39 551.642 497.192 551.408C495.401 547.847 502.213 534.437 498.296 535.184C483.95 537.918 471.649 548.149 462.092 558.585C466.263 552.529 468.565 545.449 470.209 538.344C470.966 535.074 471.357 531.743 472.706 528.711C474.03 525.731 471.556 524.857 469.12 523.605C468.668 523.343 468.176 523.157 467.663 523.056C464.857 522.645 460.82 527.621 459.041 529.441C456.44 532.103 454.097 535.004 452.042 538.107C447.977 544.221 445.101 551.045 443.563 558.224C442.257 564.402 440.396 574.598 448.014 577.122C450.389 577.797 452.882 577.952 455.323 577.578C458.296 577.246 461.224 576.592 464.056 575.626C466.179 574.907 468.238 574.007 470.294 573.113L475.313 570.929C477.514 570.033 479.649 568.982 481.702 567.784C484.557 565.9 487.188 563.697 489.544 561.218C491.842 558.96 494.379 556.862 496.724 554.61Z" fill="#0090C6"/>
<path d="M526.652 541.255C526.538 543.904 526.285 546.544 525.893 549.166C525.077 552.371 523.788 555.527 522.749 558.667C521.624 562.061 521.296 565.669 521.794 569.209C522.164 571.403 523.721 573.746 524.604 575.785C525.62 578.135 526.609 580.496 527.573 582.867C529.908 589.839 530.208 597.333 528.437 604.469C525.641 615.151 521.976 625.587 517.481 635.672C516.683 637.238 516.14 638.921 515.872 640.658C515.352 646.092 519.879 645.356 522.968 642.801C528.459 638.257 532.996 632.679 537.25 626.958C542.94 619.482 547.327 611.099 550.224 602.161C551.596 598.204 552.358 594.06 552.484 589.873C552.11 554.099 530.096 543.863 526.652 541.255Z" fill="#0090C6"/>
<path d="M524.423 521.685C522.864 527.534 521.6 533.457 520.637 539.433C519.177 548.425 505.195 546.245 506.652 537.235C506.858 535.924 507.086 534.647 507.328 533.33C507.347 533.16 507.381 532.97 507.418 532.797C507.888 530.374 508.382 527.986 508.949 525.589C508.986 525.416 509.038 525.224 509.075 525.051C509.498 523.194 509.958 521.331 510.457 519.482C511.435 515.77 514.435 512.947 518.538 513.582C522.035 514.139 525.402 517.993 524.423 521.685Z" fill="#F4BE90"/>
<g style="mix-blend-mode:multiply">
<g style="mix-blend-mode:multiply">
<path d="M520.274 523.931C518.859 527.438 516.122 530.249 512.655 531.757C510.958 532.519 509.166 533.049 507.328 533.333C507.347 533.163 507.381 532.973 507.418 532.8C507.888 530.377 508.382 527.989 508.949 525.592C511.41 525.793 513.887 525.518 516.244 524.781C517.54 524.309 518.897 524.023 520.274 523.931Z" fill="#F4BE90"/>
</g>
</g>
<path d="M395.595 727.234C395.776 727.059 395.938 726.865 396.076 726.655C397.036 725.199 396.777 723.295 396.548 721.568C396.191 718.877 395.994 716.166 395.96 713.452C395.943 712.058 396.898 708.277 394.607 708.549L382.199 710.015C382.064 710.02 381.933 710.058 381.816 710.124C381.72 710.218 381.648 710.332 381.604 710.458C381.56 710.585 381.545 710.719 381.561 710.852C381.645 712.161 381.47 713.474 381.047 714.715C380.376 715.948 378.384 716.702 377.134 717.099C375.443 717.57 373.713 717.89 371.965 718.057C367.588 718.632 363.241 719.421 358.897 720.214C357.032 720.385 355.248 721.06 353.737 722.166C351.562 724.097 351.688 726.655 354.093 728.081C357.599 730.161 362.572 730.012 366.498 729.958C370.942 729.897 375.392 729.609 379.83 729.383C382.776 729.233 385.721 729.07 388.666 728.893C390.752 728.754 393.929 728.837 395.595 727.234Z" fill="#252935"/>
<path d="M420.439 788.42C420.621 788.245 420.782 788.051 420.921 787.841C422.373 785.635 421.8 782.173 421.862 779.69C421.941 776.498 422.127 773.31 422.421 770.128C417.312 771.487 411.769 769.841 406.653 771.177C406.66 772.889 406.225 774.574 405.389 776.068C404.592 777.468 403.485 777.801 401.973 778.281C400.282 778.751 398.552 779.072 396.805 779.238C392.427 779.814 388.081 780.603 383.736 781.396C381.87 781.566 380.086 782.241 378.575 783.348C376.4 785.279 376.527 787.837 378.932 789.264C382.438 791.343 387.411 791.194 391.336 791.139C395.781 791.08 400.231 790.792 404.669 790.565C407.614 790.415 410.56 790.251 413.505 790.075C415.597 789.94 418.773 790.023 420.439 788.42Z" fill="#252935"/>
<path d="M521.482 638.671C520.739 637.94 519.74 637.528 518.697 637.522C516.071 637.587 513.354 640.614 511.807 642.49C509.879 644.749 508.533 647.444 507.884 650.341C507.371 652.917 507.025 658.024 509.647 659.661C512.864 661.67 517.628 657.797 519.586 655.478C522.942 651.504 525.21 645.204 522.668 640.239C522.368 639.651 521.966 639.121 521.482 638.671Z" fill="#F4BE90"/>
<path d="M506.851 494.627C508.041 495.915 507.837 497.723 507.861 499.328C507.984 500.955 508.002 502.587 507.914 504.216C507.534 507.617 506.153 510.83 503.945 513.445C502.82 514.763 501.093 515.994 499.477 515.369C498.02 514.805 497.479 513.044 497.271 511.495C496.648 506.791 497.365 502.006 499.339 497.69C500.215 495.785 501.6 493.805 503.671 493.502C504.252 493.422 504.844 493.483 505.397 493.679C505.95 493.874 506.449 494.199 506.851 494.627Z" fill="#563624"/>
<path d="M511.283 495.509C505.504 495.779 501.093 500.971 499.148 506.503C497.739 510.263 497.422 514.345 498.234 518.277C498.65 520.244 499.472 522.102 500.648 523.732C501.824 525.363 503.327 526.729 505.062 527.745C508.88 529.806 513.52 529.564 517.527 528.139C519.928 527.297 522.14 525.989 524.035 524.291C524.746 523.646 525.469 523.014 526.205 522.397C526.697 521.986 527.078 521.24 527.638 520.972C528.004 520.828 528.385 520.724 528.774 520.664C529.768 520.435 530.692 519.973 531.471 519.315C532.077 518.837 532.531 518.192 532.776 517.46C532.898 516.972 532.947 516.469 532.922 515.967C532.794 514.284 532.772 512.595 532.856 510.91C533.094 508.817 533.1 506.418 531.63 504.893C530.48 503.699 528.819 503.419 527.463 502.578C525.97 501.653 525.535 499.847 524.323 498.548C521.611 495.64 517.013 494.28 513.725 496.312" fill="#F4BE90"/>
<path d="M519.124 487.275C518.829 485.776 518.201 484.362 517.286 483.138C516.372 481.914 515.194 480.91 513.84 480.201C512.249 479.419 510.469 479.101 508.705 479.285C506.941 479.468 505.265 480.145 503.868 481.238C497.969 486.08 501.422 495.025 507.301 498.138C512.659 500.976 522.725 497.39 526.065 503.995C527.834 507.488 525.183 511.712 525.851 515.573C526.936 515.355 527.532 514.226 528.093 513.272C528.654 512.317 529.607 511.319 530.679 511.59C531.08 511.761 531.431 512.033 531.697 512.379C531.963 512.725 532.135 513.134 532.198 513.565C532.54 514.674 532.565 515.857 532.269 516.98C532.114 517.537 531.822 518.047 531.42 518.464C531.018 518.88 530.519 519.189 529.967 519.363C529.393 519.513 528.786 519.477 528.2 519.569C527.341 519.765 526.542 520.166 525.872 520.739C525.202 521.312 524.681 522.038 524.354 522.857C523.612 524.492 522.538 527.702 525.083 526.018C526.454 525.051 527.726 523.95 528.879 522.73C532.339 519.347 534.823 515.093 536.071 510.417C536.94 506.943 536.657 503.281 535.266 499.981C534.892 498.967 534.269 498.064 533.454 497.356C533.042 497.008 532.544 496.778 532.013 496.69C531.481 496.602 530.935 496.659 530.433 496.856C530.251 495.068 529.854 493.309 529.251 491.616C528.635 489.909 527.424 488.482 525.84 487.597C524.768 487.087 523.564 486.922 522.394 487.123C521.224 487.324 520.145 487.882 519.305 488.721C519.281 488.235 519.221 487.752 519.124 487.275Z" fill="#563624"/>
<path d="M472.802 504.889C472.555 505.216 472.385 505.594 472.303 505.996C470.881 511.107 469.858 516.32 469.244 521.59C469.083 522.976 469.039 524.605 470.108 525.503C470.585 525.84 471.152 526.026 471.736 526.035C472.32 526.045 472.893 525.878 473.38 525.557C474.343 524.895 475.132 524.01 475.678 522.977C479.039 517.478 480.684 511.084 481.511 504.688" fill="#F24B57"/>
<path d="M495.633 501.856C495.137 505.533 493.282 509.084 489.739 510.083C488.225 510.452 486.649 510.484 485.121 510.179C481.908 509.649 478.504 508.263 475.76 507.773C473.579 507.366 471.373 507.099 469.157 506.974C466.901 506.846 464.639 506.841 462.382 506.96C453.443 507.417 444.671 509.403 435.803 510.523L450.701 460.331C455.809 467.673 461.703 474.437 468.277 480.501C470.114 482.109 472.053 483.597 474.083 484.954C475.356 485.817 476.681 486.637 478.003 487.439C481.394 489.48 484.536 491.548 488.323 492.853C488.939 493.059 489.583 493.264 490.206 493.498C491.413 493.882 492.535 494.495 493.509 495.305C494.364 496.146 495.003 497.18 495.373 498.32C495.742 499.461 495.832 500.674 495.633 501.856Z" fill="#F54B56"/>
<path d="M455.164 477.862C455.003 485.466 452.959 492.912 449.216 499.533C444.798 507.136 438.568 511.564 432.754 510.341C424.09 508.499 419.655 494.847 422.854 479.802C426.032 464.784 435.632 454.092 444.268 455.914C451.216 457.405 455.436 466.517 455.164 477.862Z" fill="#505982"/>
<path d="M452.742 478.623C452.73 479.017 452.721 479.428 452.691 479.823C452.69 480.005 452.68 480.187 452.661 480.368C452.551 482.255 452.296 484.131 451.898 485.979C451.392 488.389 450.66 490.746 449.713 493.019C449.536 493.43 449.358 493.841 449.18 494.236C448.73 495.242 448.225 496.222 447.665 497.171C443.872 503.686 438.556 507.48 433.565 506.424C426.167 504.858 422.373 493.159 425.106 480.271C427.825 467.428 436.042 458.278 443.421 459.825C449.371 461.111 452.981 468.911 452.742 478.623Z" fill="#252935"/>
<path d="M452.516 481.897C452.516 482.046 452.503 482.182 452.491 482.334C452.402 483.852 452.196 485.36 451.875 486.845C451.468 488.783 450.88 490.678 450.118 492.506C449.975 492.838 449.833 493.169 449.689 493.485C448.53 493.588 446.259 493.665 445.144 493.762C444.905 493.774 444.652 493.788 444.414 493.815C443.445 493.865 440.559 493.953 440.289 493.954C440.334 493.954 440.553 493.894 440.609 493.332C440.656 492.952 440.734 492.583 440.814 492.214C441.122 490.529 441.482 488.852 441.863 487.188C442.626 483.86 443.493 480.536 443.978 477.15C444.191 476.781 444.436 476.423 444.632 476.04C445.091 476.244 450.939 480.691 452.516 481.897Z" fill="url(#paint5_linear_0_6)"/>
<path d="M446.779 482.758C446.725 485.353 446.028 487.895 444.751 490.155C443.243 492.751 441.118 494.265 439.134 493.845C436.178 493.216 434.664 488.555 435.755 483.417C436.846 478.28 440.114 474.639 443.061 475.262C445.436 475.773 446.874 478.884 446.779 482.758Z" fill="#FFB200"/>
<path d="M495.633 501.856C495.136 505.533 493.282 509.084 489.738 510.083C488.224 510.451 486.649 510.484 485.121 510.179C488.424 506.725 490.793 500.484 490.204 493.498C491.411 493.882 492.533 494.495 493.507 495.305C494.362 496.145 495.002 497.18 495.372 498.32C495.742 499.461 495.832 500.673 495.633 501.856Z" fill="#252935"/>
<g style="mix-blend-mode:multiply" opacity="0.283">
<g style="mix-blend-mode:multiply" opacity="0.283">
<path d="M577.667 430.063C576.396 439.899 574.609 449.637 572.53 459.33C570.452 468.988 567.871 478.524 564.953 487.96C563.309 493.289 561.553 498.586 559.683 503.85C559.425 504.583 560.551 504.861 560.828 504.166C564.517 494.911 567.646 485.441 570.197 475.809C572.775 466.185 574.837 456.431 576.373 446.587C577.224 441.1 577.914 435.594 578.443 430.068C578.491 429.568 577.735 429.587 577.672 430.068L577.667 430.063Z" fill="#FF7900"/>
</g>
</g>
<g style="mix-blend-mode:multiply" opacity="0.283">
<g style="mix-blend-mode:multiply" opacity="0.283">
<path d="M577.802 477.505C576.045 487.285 573.781 496.942 571.22 506.538C568.669 516.101 565.617 525.516 562.234 534.815C560.325 540.058 558.31 545.263 556.186 550.432C555.934 551.048 556.992 551.502 557.272 550.89C561.41 541.832 565.002 532.534 568.029 523.047C571.063 513.626 573.594 504.051 575.612 494.362C576.755 488.84 577.732 483.289 578.545 477.707C578.615 477.227 577.891 477.009 577.802 477.501V477.505Z" fill="#FF7900"/>
</g>
</g>
<g style="mix-blend-mode:multiply" opacity="0.283">
<g style="mix-blend-mode:multiply" opacity="0.283">
<path d="M563.009 453.478C562.829 454.776 562.474 456.024 562.23 457.31C561.985 458.596 561.716 459.879 561.464 461.158C560.972 463.692 560.422 466.212 559.815 468.718C558.589 473.78 557.208 478.799 555.953 483.852C555.919 483.979 555.937 484.114 556.003 484.228C556.068 484.341 556.176 484.425 556.302 484.46C556.429 484.495 556.564 484.478 556.678 484.414C556.793 484.35 556.877 484.243 556.914 484.117C558.776 479.201 560.201 474.131 561.173 468.965C561.682 466.387 562.131 463.796 562.519 461.195C562.706 459.938 562.844 458.675 562.981 457.412C563.121 456.111 563.114 454.812 563.261 453.513C563.278 453.37 563.029 453.335 563.009 453.478Z" fill="#FF7900"/>
</g>
</g>
<g style="mix-blend-mode:multiply" opacity="0.283">
<g style="mix-blend-mode:multiply" opacity="0.283">
<path d="M451.639 757.032C457.216 752.952 462.743 748.746 468 744.259C473.226 739.799 478.31 735.179 483.251 730.398C493.127 720.838 502.346 710.621 510.844 699.818C515.642 693.728 520.226 687.451 524.395 680.914C524.787 680.297 523.853 679.794 523.44 680.355C515.272 691.42 506.876 702.295 497.676 712.53C488.583 722.73 478.916 732.404 468.721 741.504C462.968 746.596 457.15 751.596 451.114 756.349C450.731 756.651 451.242 757.321 451.639 757.03V757.032Z" fill="#FF7900"/>
</g>
</g>
<g style="mix-blend-mode:multiply" opacity="0.283">
<g style="mix-blend-mode:multiply" opacity="0.283">
<path d="M518.816 714.05C514.641 722.287 509.007 729.7 502.187 735.928C501.426 736.628 502.54 737.703 503.311 737.051C508.929 732.313 513.582 726.538 517.016 720.041C517.983 718.204 518.861 716.324 519.653 714.403C519.85 713.925 519.046 713.589 518.816 714.05Z" fill="#FF7900"/>
</g>
</g>
<path d="M506.082 682.142C497.999 693.894 488.673 704.741 478.266 714.495C475.361 717.188 472.299 719.709 469.452 722.463C469.067 722.836 469.574 723.531 470.036 723.219C472.957 721.168 475.721 718.901 478.304 716.438C480.952 714.011 483.523 711.504 486.018 708.916C490.982 703.748 495.609 698.267 499.869 692.505C502.278 689.263 504.479 685.884 506.582 682.436C506.778 682.115 506.292 681.843 506.082 682.144V682.142Z" fill="#FF7900"/>
<g style="mix-blend-mode:screen" opacity="0.302">
<g style="mix-blend-mode:screen" opacity="0.302">
<path d="M540.627 415.269C537.508 416.668 534.026 419.078 530.866 420.048C527.927 420.949 527.497 418.61 529.161 416.563C531.474 413.716 534.079 410.998 536.442 408.162C558.302 381.923 578.905 354.703 598.253 326.503C599.445 330.296 595.916 368.385 593.101 383.217C592.759 385.013 546.673 412.558 540.627 415.269Z" fill="#FFB200"/>
</g>
</g>
<g style="mix-blend-mode:screen" opacity="0.134">
<g style="mix-blend-mode:screen" opacity="0.134">
<path d="M512.947 574.383C511.42 594.109 499.963 611.518 488.073 627.425C467.649 625.53 458.705 621.378 454.906 618.655L454.918 618.598C463.035 605.584 471.156 592.531 477.875 578.742C481.053 572.223 484.092 565.309 489.711 560.733C495.33 556.157 504.486 554.948 509.452 560.219C512.889 563.865 513.349 569.391 512.947 574.383Z" fill="#FFB200"/>
</g>
</g>
<path d="M590.417 619.019C597.592 610.666 604.821 602.362 611.942 593.963L633.313 568.757C637.345 564.003 641.417 559.268 645.334 554.415C645.671 553.998 645.102 553.398 644.733 553.814C641.079 557.931 637.568 562.18 634 566.372C630.433 570.564 626.891 574.789 623.339 579C616.233 587.425 609.138 595.857 602.053 604.295C598.046 609.081 594.106 613.917 590.111 618.712C589.934 618.924 590.235 619.226 590.419 619.021L590.417 619.019Z" fill="#2C2C2D"/>
<path d="M585.364 620.75C587.078 620.339 588.777 619.861 590.452 619.311L589.836 618.841L589.857 621.468C589.857 621.905 589.857 622.343 589.869 622.781C589.858 623.218 589.907 623.654 590.016 624.077C590.035 624.141 590.075 624.198 590.13 624.238C590.184 624.278 590.25 624.3 590.317 624.3C590.385 624.3 590.45 624.278 590.505 624.238C590.559 624.198 590.599 624.141 590.619 624.077C590.729 623.654 590.779 623.218 590.769 622.781C590.782 622.343 590.778 621.905 590.783 621.468L590.812 618.841C590.811 618.766 590.793 618.693 590.759 618.626C590.726 618.559 590.677 618.501 590.618 618.456C590.559 618.411 590.49 618.379 590.417 618.364C590.343 618.35 590.268 618.352 590.196 618.37C588.48 618.898 586.813 619.571 585.212 620.382C585.007 620.485 585.152 620.8 585.366 620.748L585.364 620.75Z" fill="#2C2C2D"/>
<path d="M614.262 672.969C609.913 684.232 604.964 695.274 599.561 706.068C594.184 716.808 588.309 727.277 581.936 737.477C575.572 747.662 568.743 757.537 561.448 767.101C554.128 776.696 546.365 785.931 538.157 794.805C529.996 803.627 521.448 812.055 512.513 820.091C511.399 821.098 510.28 822.097 509.154 823.089C508.949 823.272 509.249 823.568 509.455 823.391C518.602 815.477 527.346 807.11 535.655 798.321C543.977 789.546 551.854 780.348 559.286 770.813C566.661 761.355 573.581 751.567 580.047 741.449C586.534 731.292 592.532 720.844 598.041 710.105C603.547 699.41 608.504 688.442 612.895 677.244C613.44 675.845 613.99 674.449 614.527 673.048C614.592 672.878 614.322 672.805 614.256 672.973L614.262 672.969Z" fill="#FF7900"/>
<path d="M607.428 718.946C601.661 731.147 594.864 742.834 587.11 753.879C584.922 757.009 582.667 760.091 580.343 763.126C580.241 763.254 580.469 763.434 580.57 763.301C588.911 752.67 596.256 741.295 602.511 729.318C604.281 725.932 605.973 722.507 607.587 719.044C607.637 718.941 607.478 718.838 607.428 718.951V718.946Z" fill="#FF7900"/>
<path d="M405.826 808.457C396.791 816.113 387.901 823.938 379.157 831.933C370.458 839.91 361.911 848.048 353.517 856.347C348.783 861.027 344.097 865.756 339.517 870.587C339.389 870.721 339.59 870.924 339.722 870.792C348.059 862.38 356.411 853.987 364.968 845.796C373.493 837.635 382.164 829.631 390.981 821.783C395.951 817.356 400.967 812.983 406.031 808.662C406.173 808.541 405.968 808.337 405.826 808.457Z" fill="#FF7900"/>
<path d="M375.759 820.109C366.988 827.466 358.657 835.331 350.809 843.664C348.593 846.017 346.425 848.412 344.305 850.849C344.176 850.996 344.389 851.211 344.521 851.065C352.118 842.503 360.174 834.359 368.653 826.669C371.05 824.503 373.482 822.377 375.948 820.291C376.074 820.188 375.892 820.003 375.766 820.109H375.759Z" fill="#FF7900"/>
<path d="M371.747 808.071C360.846 817.029 350.124 826.197 339.582 835.577C329.04 844.957 318.701 854.552 308.566 864.364C302.877 869.858 297.26 875.426 291.716 881.067C291.69 881.097 291.676 881.136 291.677 881.176C291.678 881.216 291.694 881.254 291.723 881.282C291.751 881.311 291.789 881.327 291.829 881.328C291.869 881.329 291.908 881.315 291.938 881.289C301.903 871.306 312.044 861.502 322.361 851.875C332.678 842.249 343.167 832.82 353.83 823.59C359.81 818.416 365.839 813.3 371.918 808.242C372.038 808.139 371.867 807.974 371.748 808.071H371.747Z" fill="#FF7900"/>
<path d="M472.095 520.238C473.088 519.703 473.949 518.954 474.615 518.044C475.28 517.134 475.734 516.086 475.943 514.978C476.516 512.584 476.173 510.252 473.805 509.122C473.034 508.697 472.159 508.495 471.279 508.54C469.747 508.716 468.639 510.065 467.848 511.388C467.162 512.506 466.631 513.712 466.272 514.973C465.999 515.983 465.586 517.657 466.142 518.636C467.233 520.555 470.226 521.092 472.095 520.238Z" fill="#F4BE90"/>
<path d="M407.089 421.902L407.323 422.358" stroke="#43496D" stroke-linecap="round" stroke-linejoin="round"/>
<path d="M409.631 426.779C415.793 438.379 422.574 449.64 429.947 460.511" stroke="#43496D" stroke-linecap="round" stroke-linejoin="round" stroke-dasharray="0.97 4.85"/>
<path d="M431.353 462.57L431.645 462.992" stroke="#43496D" stroke-linecap="round" stroke-linejoin="round"/>
<path d="M344.288 444.208L344.705 444.508" stroke="#43496D" stroke-linecap="round" stroke-linejoin="round"/>
<path d="M348.85 447.425C369.884 461.934 392.844 473.429 417.063 481.576" stroke="#43496D" stroke-linecap="round" stroke-linejoin="round" stroke-dasharray="0.99 4.93"/>
<path d="M419.469 482.372L419.958 482.532" stroke="#43496D" stroke-linecap="round" stroke-linejoin="round"/>
<path d="M318.785 475.633C318.944 475.69 319.106 475.745 319.267 475.801" stroke="#43496D" stroke-linecap="round" stroke-linejoin="round"/>
<path d="M324.145 477.363C350.577 485.254 392.129 489.264 418.905 490.144" stroke="#43496D" stroke-linecap="round" stroke-linejoin="round" stroke-dasharray="1 4.99"/>
<path d="M421.467 490.22L421.98 490.232" stroke="#43496D" stroke-linecap="round" stroke-linejoin="round"/>
<path d="M364.473 506.332L364.987 506.301" stroke="#43496D" stroke-linecap="round" stroke-linejoin="round"/>
<path d="M370.033 505.997C385.342 505.052 400.691 503.822 415.53 500.11" stroke="#43496D" stroke-linecap="round" stroke-linejoin="round" stroke-dasharray="0.98 4.91"/>
<path d="M417.968 499.476C418.133 499.431 418.299 499.387 418.463 499.341" stroke="#43496D" stroke-linecap="round" stroke-linejoin="round"/>
<path d="M409.998 562.988C399.827 557.601 396.101 546.889 400.363 536.263C402.11 531.899 395.062 529.965 393.328 534.291C390.694 540.688 390.568 547.843 392.973 554.33C395.378 560.817 400.139 566.16 406.307 569.294C410.447 571.487 414.169 565.197 409.998 562.988Z" fill="#FFB200"/>
<path d="M417.06 552.558C413.537 550.764 409.995 545.127 411.783 541.142C413.688 536.9 407.406 533.154 405.477 537.45C402.087 545.012 405.945 555.084 413.368 558.863C417.538 560.987 421.266 554.699 417.06 552.558Z" fill="#FFB200"/>
<path d="M421.816 547.028C425.914 544.724 422.341 538.352 418.236 540.658C414.132 542.964 417.712 549.335 421.816 547.028Z" fill="#FFB200"/>
<defs>
<linearGradient id="paint0_linear_0_6" x1="438.594" y1="1073.01" x2="1172.85" y2="134.93" gradientUnits="userSpaceOnUse">
<stop stop-color="#D5005B" stop-opacity="0.97"/>
<stop offset="0.024" stop-color="#C8005E" stop-opacity="0.97"/>
<stop offset="0.116" stop-color="#9D0068" stop-opacity="0.97"/>
<stop offset="0.21" stop-color="#7A0070" stop-opacity="0.97"/>
<stop offset="0.305" stop-color="#5E0077" stop-opacity="0.97"/>
<stop offset="0.401" stop-color="#4B007B" stop-opacity="0.97"/>
<stop offset="0.5" stop-color="#3F007E" stop-opacity="0.97"/>
<stop offset="0.604" stop-color="#3B007F" stop-opacity="0.97"/>
</linearGradient>
<linearGradient id="paint1_linear_0_6" x1="441192" y1="98832.7" x2="469738" y2="214611" gradientUnits="userSpaceOnUse">
<stop stop-color="#D5005B" stop-opacity="0.97"/>
<stop offset="0.024" stop-color="#C8005E" stop-opacity="0.97"/>
<stop offset="0.116" stop-color="#9D0068" stop-opacity="0.97"/>
<stop offset="0.21" stop-color="#7A0070" stop-opacity="0.97"/>
<stop offset="0.305" stop-color="#5E0077" stop-opacity="0.97"/>
<stop offset="0.401" stop-color="#4B007B" stop-opacity="0.97"/>
<stop offset="0.5" stop-color="#3F007E" stop-opacity="0.97"/>
<stop offset="0.604" stop-color="#3B007F" stop-opacity="0.97"/>
</linearGradient>
<linearGradient id="paint2_linear_0_6" x1="394421" y1="82581.8" x2="542679" y2="380081" gradientUnits="userSpaceOnUse">
<stop stop-color="#D5005B" stop-opacity="0.97"/>
<stop offset="0.024" stop-color="#C8005E" stop-opacity="0.97"/>
<stop offset="0.116" stop-color="#9D0068" stop-opacity="0.97"/>
<stop offset="0.21" stop-color="#7A0070" stop-opacity="0.97"/>
<stop offset="0.305" stop-color="#5E0077" stop-opacity="0.97"/>
<stop offset="0.401" stop-color="#4B007B" stop-opacity="0.97"/>
<stop offset="0.5" stop-color="#3F007E" stop-opacity="0.97"/>
<stop offset="0.604" stop-color="#3B007F" stop-opacity="0.97"/>
</linearGradient>
<linearGradient id="paint3_linear_0_6" x1="614.433" y1="569.333" x2="751.906" y2="1231.96" gradientUnits="userSpaceOnUse">
<stop stop-color="#D5005B" stop-opacity="0.97"/>
<stop offset="0.099" stop-color="#D0005C" stop-opacity="0.94"/>
<stop offset="0.238" stop-color="#C3005F" stop-opacity="0.855"/>
<stop offset="0.399" stop-color="#AC0064" stop-opacity="0.715"/>
<stop offset="0.579" stop-color="#8E006C" stop-opacity="0.52"/>
<stop offset="0.77" stop-color="#660075" stop-opacity="0.274"/>
<stop offset="0.956" stop-color="#3B007F" stop-opacity="0"/>
</linearGradient>
<linearGradient id="paint4_linear_0_6" x1="100224" y1="20751" x2="101177" y2="29602.3" gradientUnits="userSpaceOnUse">
<stop stop-color="#D5005B" stop-opacity="0.97"/>
<stop offset="0.024" stop-color="#C8005E" stop-opacity="0.97"/>
<stop offset="0.116" stop-color="#9D0068" stop-opacity="0.97"/>
<stop offset="0.21" stop-color="#7A0070" stop-opacity="0.97"/>
<stop offset="0.305" stop-color="#5E0077" stop-opacity="0.97"/>
<stop offset="0.401" stop-color="#4B007B" stop-opacity="0.97"/>
<stop offset="0.5" stop-color="#3F007E" stop-opacity="0.97"/>
<stop offset="0.604" stop-color="#3B007F" stop-opacity="0.97"/>
</linearGradient>
<linearGradient id="paint5_linear_0_6" x1="444.429" y1="485.538" x2="454.766" y2="488.41" gradientUnits="userSpaceOnUse">
<stop stop-color="#FF9100" stop-opacity="0.97"/>
<stop offset="0.215" stop-color="#C2740F" stop-opacity="0.97"/>
<stop offset="0.53" stop-color="#6E4C23" stop-opacity="0.97"/>
<stop offset="0.754" stop-color="#393330" stop-opacity="0.97"/>
<stop offset="0.864" stop-color="#252935" stop-opacity="0.97"/>
</linearGradient>
</defs>
</svg>
